<svg xmlns="http://www.w3.org/2000/svg" version="1.1" xmlns:xlink="http://www.w3.org/1999/xlink" xmlns:svgjs="http://svgjs.com/svgjs" width="1440" height="560" preserveAspectRatio="none" viewBox="0 0 1440 560"><g mask="url(&quot;#SvgjsMask1467&quot;)" fill="none"><rect width="1440" height="560" x="0" y="0" fill="#0e2a47"></rect><path d="M22.77 124.53L73 153.53L73 211.53L22.77 240.53L-27.46 211.53L-27.46 153.53zM173.46 37.53L223.69 66.53L223.69 124.53L173.46 153.53L123.23 124.53L123.23 66.53zM273.92 211.53L324.16 240.53L324.16 298.53L273.92 327.53L223.69 298.53L223.69 240.53zM324.16 472.53L374.39 501.53L374.39 559.53L324.16 588.53L273.92 559.53L273.92 501.53zM424.62 298.53L474.85 327.53L474.85 385.53L424.62 414.53L374.39 385.53L374.39 327.53zM424.62 472.53L474.85 501.53L474.85 559.53L424.62 588.53L374.39 559.53L374.39 501.53zM525.08 -49.47L575.31 -20.47L575.31 37.53L525.08 66.53L474.85 37.53L474.85 -20.47zM575.31 211.53L625.54 240.53L625.54 298.53L575.31 327.53L525.08 298.53L525.08 240.53zM575.31 385.53L625.54 414.53L625.54 472.53L575.31 501.53L525.08 472.53L525.08 414.53zM675.77 211.53L726 240.53L726 298.53L675.77 327.53L625.54 298.53L625.54 240.53zM726 -49.47L776.23 -20.47L776.23 37.53L726 66.53L675.77 37.53L675.77 -20.47zM876.7 37.53L926.93 66.53L926.93 124.53L876.7 153.53L826.46 124.53L826.46 66.53zM876.7 211.53L926.93 240.53L926.93 298.53L876.7 327.53L826.46 298.53L826.46 240.53zM826.46 472.53L876.7 501.53L876.7 559.53L826.46 588.53L776.23 559.53L776.23 501.53zM926.93 298.53L977.16 327.53L977.16 385.53L926.93 414.53L876.7 385.53L876.7 327.53zM977.16 385.53L1027.39 414.53L1027.39 472.53L977.16 501.53L926.93 472.53L926.93 414.53zM1077.62 211.53L1127.85 240.53L1127.85 298.53L1077.62 327.53L1027.39 298.53L1027.39 240.53zM1178.08 211.53L1228.31 240.53L1228.31 298.53L1178.08 327.53L1127.85 298.53L1127.85 240.53zM1127.85 472.53L1178.08 501.53L1178.08 559.53L1127.85 588.53L1077.62 559.53L1077.62 501.53zM1379 37.53L1429.24 66.53L1429.24 124.53L1379 153.53L1328.77 124.53L1328.77 66.53zM1328.77 124.53L1379 153.53L1379 211.53L1328.77 240.53L1278.54 211.53L1278.54 153.53zM1328.77 298.53L1379 327.53L1379 385.53L1328.77 414.53L1278.54 385.53L1278.54 327.53zM1379 385.53L1429.24 414.53L1429.24 472.53L1379 501.53L1328.77 472.53L1328.77 414.53zM1479.47 385.53L1529.7 414.53L1529.7 472.53L1479.47 501.53L1429.24 472.53L1429.24 414.53z" stroke="url(#SvgjsLinearGradient1468)" stroke-width="2"></path><path d="M16.97 124.53 a5.8 5.8 0 1 0 11.6 0 a5.8 5.8 0 1 0 -11.6 0zM67.2 153.53 a5.8 5.8 0 1 0 11.6 0 a5.8 5.8 0 1 0 -11.6 0zM67.2 211.53 a5.8 5.8 0 1 0 11.6 0 a5.8 5.8 0 1 0 -11.6 0zM16.97 240.53 a5.8 5.8 0 1 0 11.6 0 a5.8 5.8 0 1 0 -11.6 0zM-33.26 211.53 a5.8 5.8 0 1 0 11.6 0 a5.8 5.8 0 1 0 -11.6 0zM-33.26 153.53 a5.8 5.8 0 1 0 11.6 0 a5.8 5.8 0 1 0 -11.6 0zM167.66 37.53 a5.8 5.8 0 1 0 11.6 0 a5.8 5.8 0 1 0 -11.6 0zM217.89 66.53 a5.8 5.8 0 1 0 11.6 0 a5.8 5.8 0 1 0 -11.6 0zM217.89 124.53 a5.8 5.8 0 1 0 11.6 0 a5.8 5.8 0 1 0 -11.6 0zM167.66 153.53 a5.8 5.8 0 1 0 11.6 0 a5.8 5.8 0 1 0 -11.6 0zM117.43 124.53 a5.8 5.8 0 1 0 11.6 0 a5.8 5.8 0 1 0 -11.6 0zM117.43 66.53 a5.8 5.8 0 1 0 11.6 0 a5.8 5.8 0 1 0 -11.6 0zM268.12 211.53 a5.8 5.8 0 1 0 11.6 0 a5.8 5.8 0 1 0 -11.6 0zM318.36 240.53 a5.8 5.8 0 1 0 11.6 0 a5.8 5.8 0 1 0 -11.6 0zM318.36 298.53 a5.8 5.8 0 1 0 11.6 0 a5.8 5.8 0 1 0 -11.6 0zM268.12 327.53 a5.8 5.8 0 1 0 11.6 0 a5.8 5.8 0 1 0 -11.6 0zM217.89 298.53 a5.8 5.8 0 1 0 11.6 0 a5.8 5.8 0 1 0 -11.6 0zM217.89 240.53 a5.8 5.8 0 1 0 11.6 0 a5.8 5.8 0 1 0 -11.6 0zM318.36 472.53 a5.8 5.8 0 1 0 11.6 0 a5.8 5.8 0 1 0 -11.6 0zM368.59 501.53 a5.8 5.8 0 1 0 11.6 0 a5.8 5.8 0 1 0 -11.6 0zM368.59 559.53 a5.8 5.8 0 1 0 11.6 0 a5.8 5.8 0 1 0 -11.6 0zM318.36 588.53 a5.8 5.8 0 1 0 11.6 0 a5.8 5.8 0 1 0 -11.6 0zM268.12 559.53 a5.8 5.8 0 1 0 11.6 0 a5.8 5.8 0 1 0 -11.6 0zM268.12 501.53 a5.8 5.8 0 1 0 11.6 0 a5.8 5.8 0 1 0 -11.6 0zM418.82 298.53 a5.8 5.8 0 1 0 11.6 0 a5.8 5.8 0 1 0 -11.6 0zM469.05 327.53 a5.8 5.8 0 1 0 11.6 0 a5.8 5.8 0 1 0 -11.6 0zM469.05 385.53 a5.8 5.8 0 1 0 11.6 0 a5.8 5.8 0 1 0 -11.6 0zM418.82 414.53 a5.8 5.8 0 1 0 11.6 0 a5.8 5.8 0 1 0 -11.6 0zM368.59 385.53 a5.8 5.8 0 1 0 11.6 0 a5.8 5.8 0 1 0 -11.6 0zM368.59 327.53 a5.8 5.8 0 1 0 11.6 0 a5.8 5.8 0 1 0 -11.6 0zM418.82 472.53 a5.8 5.8 0 1 0 11.6 0 a5.8 5.8 0 1 0 -11.6 0zM469.05 501.53 a5.8 5.8 0 1 0 11.6 0 a5.8 5.8 0 1 0 -11.6 0zM469.05 559.53 a5.8 5.8 0 1 0 11.6 0 a5.8 5.8 0 1 0 -11.6 0zM418.82 588.53 a5.8 5.8 0 1 0 11.6 0 a5.8 5.8 0 1 0 -11.6 0zM519.28 -49.47 a5.8 5.8 0 1 0 11.6 0 a5.8 5.8 0 1 0 -11.6 0zM569.51 -20.47 a5.8 5.8 0 1 0 11.6 0 a5.8 5.8 0 1 0 -11.6 0zM569.51 37.53 a5.8 5.8 0 1 0 11.6 0 a5.8 5.8 0 1 0 -11.6 0zM519.28 66.53 a5.8 5.8 0 1 0 11.6 0 a5.8 5.8 0 1 0 -11.6 0zM469.05 37.53 a5.8 5.8 0 1 0 11.6 0 a5.8 5.8 0 1 0 -11.6 0zM469.05 -20.47 a5.8 5.8 0 1 0 11.6 0 a5.8 5.8 0 1 0 -11.6 0zM569.51 211.53 a5.8 5.8 0 1 0 11.6 0 a5.8 5.8 0 1 0 -11.6 0zM619.74 240.53 a5.8 5.8 0 1 0 11.6 0 a5.8 5.8 0 1 0 -11.6 0zM619.74 298.53 a5.8 5.8 0 1 0 11.6 0 a5.8 5.8 0 1 0 -11.6 0zM569.51 327.53 a5.8 5.8 0 1 0 11.6 0 a5.8 5.8 0 1 0 -11.6 0zM519.28 298.53 a5.8 5.8 0 1 0 11.6 0 a5.8 5.8 0 1 0 -11.6 0zM519.28 240.53 a5.8 5.8 0 1 0 11.6 0 a5.8 5.8 0 1 0 -11.6 0zM569.51 385.53 a5.8 5.8 0 1 0 11.6 0 a5.8 5.8 0 1 0 -11.6 0zM619.74 414.53 a5.8 5.8 0 1 0 11.6 0 a5.8 5.8 0 1 0 -11.6 0zM619.74 472.53 a5.8 5.8 0 1 0 11.6 0 a5.8 5.8 0 1 0 -11.6 0zM569.51 501.53 a5.8 5.8 0 1 0 11.6 0 a5.8 5.8 0 1 0 -11.6 0zM519.28 472.53 a5.8 5.8 0 1 0 11.6 0 a5.8 5.8 0 1 0 -11.6 0zM519.28 414.53 a5.8 5.8 0 1 0 11.6 0 a5.8 5.8 0 1 0 -11.6 0zM669.97 211.53 a5.8 5.8 0 1 0 11.6 0 a5.8 5.8 0 1 0 -11.6 0zM720.2 240.53 a5.8 5.8 0 1 0 11.6 0 a5.8 5.8 0 1 0 -11.6 0zM720.2 298.53 a5.8 5.8 0 1 0 11.6 0 a5.8 5.8 0 1 0 -11.6 0zM669.97 327.53 a5.8 5.8 0 1 0 11.6 0 a5.8 5.8 0 1 0 -11.6 0zM720.2 -49.47 a5.8 5.8 0 1 0 11.6 0 a5.8 5.8 0 1 0 -11.6 0zM770.43 -20.47 a5.8 5.8 0 1 0 11.6 0 a5.8 5.8 0 1 0 -11.6 0zM770.43 37.53 a5.8 5.8 0 1 0 11.6 0 a5.8 5.8 0 1 0 -11.6 0zM720.2 66.53 a5.8 5.8 0 1 0 11.6 0 a5.8 5.8 0 1 0 -11.6 0zM669.97 37.53 a5.8 5.8 0 1 0 11.6 0 a5.8 5.8 0 1 0 -11.6 0zM669.97 -20.47 a5.8 5.8 0 1 0 11.6 0 a5.8 5.8 0 1 0 -11.6 0zM870.9 37.53 a5.8 5.8 0 1 0 11.6 0 a5.8 5.8 0 1 0 -11.6 0zM921.13 66.53 a5.8 5.8 0 1 0 11.6 0 a5.8 5.8 0 1 0 -11.6 0zM921.13 124.53 a5.8 5.8 0 1 0 11.6 0 a5.8 5.8 0 1 0 -11.6 0zM870.9 153.53 a5.8 5.8 0 1 0 11.6 0 a5.8 5.8 0 1 0 -11.6 0zM820.66 124.53 a5.8 5.8 0 1 0 11.6 0 a5.8 5.8 0 1 0 -11.6 0zM820.66 66.53 a5.8 5.8 0 1 0 11.6 0 a5.8 5.8 0 1 0 -11.6 0zM870.9 211.53 a5.8 5.8 0 1 0 11.6 0 a5.8 5.8 0 1 0 -11.6 0zM921.13 240.53 a5.8 5.8 0 1 0 11.6 0 a5.8 5.8 0 1 0 -11.6 0zM921.13 298.53 a5.8 5.8 0 1 0 11.6 0 a5.8 5.8 0 1 0 -11.6 0zM870.9 327.53 a5.8 5.8 0 1 0 11.6 0 a5.8 5.8 0 1 0 -11.6 0zM820.66 298.53 a5.8 5.8 0 1 0 11.6 0 a5.8 5.8 0 1 0 -11.6 0zM820.66 240.53 a5.8 5.8 0 1 0 11.6 0 a5.8 5.8 0 1 0 -11.6 0zM820.66 472.53 a5.8 5.8 0 1 0 11.6 0 a5.8 5.8 0 1 0 -11.6 0zM870.9 501.53 a5.8 5.8 0 1 0 11.6 0 a5.8 5.8 0 1 0 -11.6 0zM870.9 559.53 a5.8 5.8 0 1 0 11.6 0 a5.8 5.8 0 1 0 -11.6 0zM820.66 588.53 a5.8 5.8 0 1 0 11.6 0 a5.8 5.8 0 1 0 -11.6 0zM770.43 559.53 a5.8 5.8 0 1 0 11.6 0 a5.8 5.8 0 1 0 -11.6 0zM770.43 501.53 a5.8 5.8 0 1 0 11.6 0 a5.8 5.8 0 1 0 -11.6 0zM971.36 327.53 a5.8 5.8 0 1 0 11.6 0 a5.8 5.8 0 1 0 -11.6 0zM971.36 385.53 a5.8 5.8 0 1 0 11.6 0 a5.8 5.8 0 1 0 -11.6 0zM921.13 414.53 a5.8 5.8 0 1 0 11.6 0 a5.8 5.8 0 1 0 -11.6 0zM870.9 385.53 a5.8 5.8 0 1 0 11.6 0 a5.8 5.8 0 1 0 -11.6 0zM1021.59 414.53 a5.8 5.8 0 1 0 11.6 0 a5.8 5.8 0 1 0 -11.6 0zM1021.59 472.53 a5.8 5.8 0 1 0 11.6 0 a5.8 5.8 0 1 0 -11.6 0zM971.36 501.53 a5.8 5.8 0 1 0 11.6 0 a5.8 5.8 0 1 0 -11.6 0zM921.13 472.53 a5.8 5.8 0 1 0 11.6 0 a5.8 5.8 0 1 0 -11.6 0zM1071.82 211.53 a5.8 5.8 0 1 0 11.6 0 a5.8 5.8 0 1 0 -11.6 0zM1122.05 240.53 a5.8 5.8 0 1 0 11.6 0 a5.8 5.8 0 1 0 -11.6 0zM1122.05 298.53 a5.8 5.8 0 1 0 11.6 0 a5.8 5.8 0 1 0 -11.6 0zM1071.82 327.53 a5.8 5.8 0 1 0 11.6 0 a5.8 5.8 0 1 0 -11.6 0zM1021.59 298.53 a5.8 5.8 0 1 0 11.6 0 a5.8 5.8 0 1 0 -11.6 0zM1021.59 240.53 a5.8 5.8 0 1 0 11.6 0 a5.8 5.8 0 1 0 -11.6 0zM1172.28 211.53 a5.8 5.8 0 1 0 11.6 0 a5.8 5.8 0 1 0 -11.6 0zM1222.51 240.53 a5.8 5.8 0 1 0 11.6 0 a5.8 5.8 0 1 0 -11.6 0zM1222.51 298.53 a5.8 5.8 0 1 0 11.6 0 a5.8 5.8 0 1 0 -11.6 0zM1172.28 327.53 a5.8 5.8 0 1 0 11.6 0 a5.8 5.8 0 1 0 -11.6 0zM1122.05 472.53 a5.8 5.8 0 1 0 11.6 0 a5.8 5.8 0 1 0 -11.6 0zM1172.28 501.53 a5.8 5.8 0 1 0 11.6 0 a5.8 5.8 0 1 0 -11.6 0zM1172.28 559.53 a5.8 5.8 0 1 0 11.6 0 a5.8 5.8 0 1 0 -11.6 0zM1122.05 588.53 a5.8 5.8 0 1 0 11.6 0 a5.8 5.8 0 1 0 -11.6 0zM1071.82 559.53 a5.8 5.8 0 1 0 11.6 0 a5.8 5.8 0 1 0 -11.6 0zM1071.82 501.53 a5.8 5.8 0 1 0 11.6 0 a5.8 5.8 0 1 0 -11.6 0zM1373.2 37.53 a5.8 5.8 0 1 0 11.6 0 a5.8 5.8 0 1 0 -11.6 0zM1423.44 66.53 a5.8 5.8 0 1 0 11.6 0 a5.8 5.8 0 1 0 -11.6 0zM1423.44 124.53 a5.8 5.8 0 1 0 11.6 0 a5.8 5.8 0 1 0 -11.6 0zM1373.2 153.53 a5.8 5.8 0 1 0 11.6 0 a5.8 5.8 0 1 0 -11.6 0zM1322.97 124.53 a5.8 5.8 0 1 0 11.6 0 a5.8 5.8 0 1 0 -11.6 0zM1322.97 66.53 a5.8 5.8 0 1 0 11.6 0 a5.8 5.8 0 1 0 -11.6 0zM1373.2 211.53 a5.8 5.8 0 1 0 11.6 0 a5.8 5.8 0 1 0 -11.6 0zM1322.97 240.53 a5.8 5.8 0 1 0 11.6 0 a5.8 5.8 0 1 0 -11.6 0zM1272.74 211.53 a5.8 5.8 0 1 0 11.6 0 a5.8 5.8 0 1 0 -11.6 0zM1272.74 153.53 a5.8 5.8 0 1 0 11.6 0 a5.8 5.8 0 1 0 -11.6 0zM1322.97 298.53 a5.8 5.8 0 1 0 11.6 0 a5.8 5.8 0 1 0 -11.6 0zM1373.2 327.53 a5.8 5.8 0 1 0 11.6 0 a5.8 5.8 0 1 0 -11.6 0zM1373.2 385.53 a5.8 5.8 0 1 0 11.6 0 a5.8 5.8 0 1 0 -11.6 0zM1322.97 414.53 a5.8 5.8 0 1 0 11.6 0 a5.8 5.8 0 1 0 -11.6 0zM1272.74 385.53 a5.8 5.8 0 1 0 11.6 0 a5.8 5.8 0 1 0 -11.6 0zM1272.74 327.53 a5.8 5.8 0 1 0 11.6 0 a5.8 5.8 0 1 0 -11.6 0zM1423.44 414.53 a5.8 5.8 0 1 0 11.6 0 a5.8 5.8 0 1 0 -11.6 0zM1423.44 472.53 a5.8 5.8 0 1 0 11.6 0 a5.8 5.8 0 1 0 -11.6 0zM1373.2 501.53 a5.8 5.8 0 1 0 11.6 0 a5.8 5.8 0 1 0 -11.6 0zM1322.97 472.53 a5.8 5.8 0 1 0 11.6 0 a5.8 5.8 0 1 0 -11.6 0zM1473.67 385.53 a5.8 5.8 0 1 0 11.6 0 a5.8 5.8 0 1 0 -11.6 0zM1523.9 414.53 a5.8 5.8 0 1 0 11.6 0 a5.8 5.8 0 1 0 -11.6 0zM1523.9 472.53 a5.8 5.8 0 1 0 11.6 0 a5.8 5.8 0 1 0 -11.6 0zM1473.67 501.53 a5.8 5.8 0 1 0 11.6 0 a5.8 5.8 0 1 0 -11.6 0z" fill="url(#SvgjsLinearGradient1468)"></path><path d="M12.27 410.89L52.11 433.89L52.11 479.89L12.27 502.89L-27.57 479.89L-27.57 433.89zM171.62 -3.11L211.46 19.89L211.46 65.89L171.62 88.89L131.78 65.89L131.78 19.89zM251.3 134.89L291.14 157.89L291.14 203.89L251.3 226.89L211.46 203.89L211.46 157.89zM450.49 479.89L490.33 502.89L490.33 548.89L450.49 571.89L410.65 548.89L410.65 502.89zM490.33 -3.11L530.17 19.89L530.17 65.89L490.33 88.89L450.49 65.89L450.49 19.89zM530.17 65.89L570.01 88.89L570.01 134.89L530.17 157.89L490.33 134.89L490.33 88.89zM530.17 203.89L570.01 226.89L570.01 272.89L530.17 295.89L490.33 272.89L490.33 226.89zM570.01 -3.11L609.84 19.89L609.84 65.89L570.01 88.89L530.17 65.89L530.17 19.89zM609.84 341.89L649.68 364.89L649.68 410.89L609.84 433.89L570.01 410.89L570.01 364.89zM649.68 272.89L689.52 295.89L689.52 341.89L649.68 364.89L609.84 341.89L609.84 295.89zM649.68 410.89L689.52 433.89L689.52 479.89L649.68 502.89L609.84 479.89L609.84 433.89zM729.36 410.89L769.2 433.89L769.2 479.89L729.36 502.89L689.52 479.89L689.52 433.89zM928.55 341.89L968.39 364.89L968.39 410.89L928.55 433.89L888.71 410.89L888.71 364.89zM1008.23 203.89L1048.07 226.89L1048.07 272.89L1008.23 295.89L968.39 272.89L968.39 226.89zM1048.07 272.89L1087.9 295.89L1087.9 341.89L1048.07 364.89L1008.23 341.89L1008.23 295.89zM1247.26 65.89L1287.1 88.89L1287.1 134.89L1247.26 157.89L1207.42 134.89L1207.42 88.89zM1326.93 65.89L1366.77 88.89L1366.77 134.89L1326.93 157.89L1287.1 134.89L1287.1 88.89zM1287.1 410.89L1326.93 433.89L1326.93 479.89L1287.1 502.89L1247.26 479.89L1247.26 433.89zM1326.93 479.89L1366.77 502.89L1366.77 548.89L1326.93 571.89L1287.1 548.89L1287.1 502.89zM1366.77 -3.11L1406.61 19.89L1406.61 65.89L1366.77 88.89L1326.93 65.89L1326.93 19.89z" stroke="rgba(6, 80, 156, 0.93)" stroke-width="2"></path></g><defs><mask id="SvgjsMask1467"><rect width="1440" height="560" fill="#ffffff"></rect></mask><linearGradient x1="1219.9679999999998" y1="-220.02399999999997" x2="220.03199999999998" y2="780.024" gradientUnits="userSpaceOnUse" id="SvgjsLinearGradient1468"><stop stop-color="rgba(158, 0, 129, 1)" offset="0"></stop><stop stop-color="rgba(145, 215, 9, 1)" offset="1"></stop></linearGradient></defs></svg>