<svg xmlns="http://www.w3.org/2000/svg" version="1.1" xmlns:xlink="http://www.w3.org/1999/xlink" xmlns:svgjs="http://svgjs.com/svgjs" width="2122" height="1080" preserveAspectRatio="none" viewBox="0 0 2122 1080"><g mask="url(&quot;#SvgjsMask2895&quot;)" fill="none"><rect width="2122" height="1080" x="0" y="0" fill="url(#SvgjsRadialGradient2896)"></rect><path d="M55 1080L1135 0L1370.5 0L290.5 1080z" fill="url(#SvgjsLinearGradient2897)"></path><path d="M816.26 1080L1896.26 0L2121.26 0L1041.26 1080z" fill="url(#SvgjsLinearGradient2897)"></path><path d="M2118 1080L1038 0L327 0L1407 1080z" fill="url(#SvgjsLinearGradient2898)"></path><path d="M1367.74 1080L287.74 0L-748.76 0L331.24 1080z" fill="url(#SvgjsLinearGradient2898)"></path><path d="M1118.040737990027 1080L2122 76.04073799002697L2122 1080z" fill="url(#SvgjsLinearGradient2897)"></path><path d="M0 1080L1003.959262009973 1080L 0 76.04073799002697z" fill="url(#SvgjsLinearGradient2898)"></path></g><defs><mask id="SvgjsMask2895"><rect width="2122" height="1080" fill="#ffffff"></rect></mask><radialGradient cx="50%" cy="50%" r="1190.51" gradientUnits="userSpaceOnUse" id="SvgjsRadialGradient2896"><stop stop-color="rgba(0, 0, 0, 1)" offset="0"></stop><stop stop-color="rgba(69, 70, 164, 1)" offset="1"></stop></radialGradient><linearGradient x1="0%" y1="100%" x2="100%" y2="0%" id="SvgjsLinearGradient2897"><stop stop-color="rgba(15, 70, 185, 0.2)" offset="0"></stop><stop stop-opacity="0" stop-color="rgba(15, 70, 185, 0.2)" offset="0.66"></stop></linearGradient><linearGradient x1="100%" y1="100%" x2="0%" y2="0%" id="SvgjsLinearGradient2898"><stop stop-color="rgba(15, 70, 185, 0.2)" offset="0"></stop><stop stop-opacity="0" stop-color="rgba(15, 70, 185, 0.2)" offset="0.66"></stop></linearGradient></defs></svg>